<?xml version="1.0" encoding="UTF-8"?>
<svg xmlns="http://www.w3.org/2000/svg" xmlns:xlink="http://www.w3.org/1999/xlink" xmlns:xodm="http://www.corel.com/coreldraw/odm/2003" xml:space="preserve" width="2500px" height="2500px" version="1.1" style="shape-rendering:geometricPrecision; text-rendering:geometricPrecision; image-rendering:optimizeQuality; fill-rule:evenodd; clip-rule:evenodd" viewBox="0 0 2500 2500">
 <defs>
  <style type="text/css">
   
    .fil0 {fill:black;fill-rule:nonzero}
   
  </style>
 </defs>
 <g id="Layer_x0020_1">
  <metadata id="CorelCorpID_0Corel-Layer"></metadata>
  <g id="_2017762288000">
   <path class="fil0" d="M515 877l-379 -193c-30,58 -55,119 -75,182l405 131c13,-41 30,-81 49,-119l0 0z"></path>
   <path class="fil0" d="M837 536l210 362c31,-18 63,-31 98,-41l-109 -404c28,-7 56,-14 84,-18l-67 -420c-65,10 -129,26 -191,46l130 398c-41,13 -82,30 -120,50l-191 -373c-58,30 -114,64 -167,103l251 344c23,-17 47,-32 72,-47l0 0z"></path>
   <path class="fil0" d="M1963 836l-362 210c18,31 31,63 41,98l404 -109c7,28 14,56 18,84l420 -67c-10,-65 -26,-129 -46,-191l-398 130c-14,-41 -30,-81 -50,-120l372 -191c-30,-58 -64,-114 -103,-167l-344 251c17,23 32,47 47,72l0 0z"></path>
   <path class="fil0" d="M1816 135c-58,-30 -119,-55 -182,-75l-131 405c41,13 81,30 119,49l193 -379 0 0z"></path>
   <path class="fil0" d="M1665 529l-212 369c31,18 59,39 84,65l596 -598c-46,-46 -96,-89 -149,-127l-246 339c-23,-17 -48,-33 -73,-47l0 0z"></path>
   <path class="fil0" d="M529 835l368 213c18,-31 40,-59 65,-84l-597 -596c-46,46 -89,96 -127,149l339 246c-17,23 -33,48 -47,73z"></path>
   <path class="fil0" d="M1379 428l64 -414c-64,-10 -128,-15 -193,-15l-1 0 0 844 1 0c36,0 71,5 105,14l109 -411c-28,-7 -56,-13 -85,-18z"></path>
   <path class="fil0" d="M857 1145l-411 -109c-7,28 -13,56 -18,85l-413 -64c-10,64 -15,129 -15,194l844 0c0,-36 5,-71 14,-105l0 0z"></path>
   <path class="fil0" d="M1985 1623l379 193c30,-58 55,-119 75,-182l-405 -131c-13,41 -30,81 -49,119l0 0z"></path>
   <path class="fil0" d="M1663 1963l-210 -362c-31,18 -63,31 -98,41l109 404c-28,7 -56,14 -84,18l67 420c65,-10 129,-26 191,-46l-130 -398c41,-13 82,-30 120,-50l191 373c58,-30 114,-64 167,-103l-251 -344c-23,17 -47,32 -72,47z"></path>
   <path class="fil0" d="M537 1664l362 -210c-18,-31 -31,-63 -41,-98l-404 109c-7,-28 -14,-56 -18,-84l-420 67c10,65 26,129 46,191l398 -130c14,41 30,82 50,120l-372 191c30,58 64,114 103,167l344 -251c-17,-23 -33,-47 -47,-72l0 0z"></path>
   <path class="fil0" d="M684 2365c58,30 119,55 182,75l131 -405c-41,-13 -81,-30 -119,-49l-193 379 0 0z"></path>
   <path class="fil0" d="M835 1971l212 -369c-31,-18 -59,-39 -84,-65l-596 598c46,46 96,89 149,127l246 -339c23,17 48,33 73,47l0 0z"></path>
   <path class="fil0" d="M1971 1665l-368 -213c-18,31 -40,59 -65,84l597 596c46,-46 89,-96 127,-149l-339 -246c17,-23 33,-48 47,-73l0 0z"></path>
   <path class="fil0" d="M1145 1643l-109 411c28,7 56,13 85,18l-64 414c64,10 128,15 193,15l1 0 0 -844 -1 0c-36,0 -71,-5 -105,-14l0 0z"></path>
   <path class="fil0" d="M1656 1250c0,36 -5,71 -14,105l411 109c7,-28 13,-56 18,-85l414 65c10,-64 15,-129 15,-194l-844 0 0 0z"></path>
  </g>
 </g>
</svg>
